<svg xmlns="http://www.w3.org/2000/svg" viewBox="0 0 400 400" width="100%" height="100%">
  <defs>
    <linearGradient id="orangeGrad" x1="0%" y1="0%" x2="100%" y2="100%">
      <stop offset="0%" stop-color="#FF9233" />
      <stop offset="100%" stop-color="#FF5200" />
    </linearGradient>
    
    <linearGradient id="textGrad" x1="0%" y1="0%" x2="100%" y2="0%">
      <stop offset="0%" stop-color="#FF7A00" />
      <stop offset="100%" stop-color="#FF3D00" />
    </linearGradient>
    
    <filter id="dropShadow" x="-10%" y="-10%" width="130%" height="130%">
      <feDropShadow dx="2" dy="5" stdDeviation="6" flood-opacity="0.15"/>
    </filter>
  </defs>

  <g transform="translate(100, 40)" filter="url(#dropShadow)">
    <rect x="0" y="0" width="200" height="200" rx="45" ry="45" fill="url(#orangeGrad)" />
    
    <line x1="30" y1="160" x2="170" y2="160" stroke="#FFFFFF" stroke-width="8" stroke-linecap="round" />
    
    <ellipse cx="95" cy="155" rx="35" ry="4" fill="#000000" opacity="0.15" />

    <rect x="65" y="65" width="60" height="90" rx="8" fill="#FFFFFF" />
    
    <rect x="73" y="75" width="44" height="25" rx="4" fill="#FF7A00" opacity="0.2" />
    <rect x="73" y="106" width="19" height="19" rx="4" fill="#FF7A00" />
    <rect x="98" y="106" width="19" height="19" rx="4" fill="#FF7A00" />
    <rect x="73" y="131" width="30" height="4" rx="2" fill="#E0E0E0" />
    <rect x="73" y="139" width="15" height="4" rx="2" fill="#E0E0E0" />

    <path d="M 100 120 Q 130 90 145 50" fill="none" stroke="#FFFFFF" stroke-width="3" stroke-linecap="round" opacity="0.3" />
    <path d="M 115 130 Q 145 100 160 60" fill="none" stroke="#FFFFFF" stroke-width="3" stroke-linecap="round" opacity="0.3" />

    <g transform="translate(90, 25) rotate(22)">
      <rect x="-5" y="47" width="95" height="6" rx="3" fill="#1A252F" />
      <path d="M 0 47 C 0 10 85 10 85 47 Z" fill="#2C3E50" />
      <circle cx="42.5" cy="10" r="9" fill="#2C3E50" />
      <path d="M 12 40 C 12 20 40 15 65 20" fill="none" stroke="#FFFFFF" stroke-width="3" stroke-linecap="round" opacity="0.15" />
    </g>

    <path d="M 35 70 Q 45 70 45 60 Q 45 70 55 70 Q 45 70 45 80 Q 45 70 35 70 Z" fill="#FFFFFF" opacity="0.9"/>
    <path d="M 165 115 Q 172 115 172 108 Q 172 115 179 115 Q 172 115 172 122 Q 172 115 165 115 Z" fill="#FFFFFF" opacity="0.9"/>
  </g>

  <text x="200" y="320" font-family="'Montserrat', 'Segoe UI', 'Helvetica Neue', sans-serif" font-size="52" font-weight="900" text-anchor="middle">
    <tspan fill="#2C3E50" letter-spacing="-1.5">Mostra </tspan>
    <tspan fill="url(#textGrad)" letter-spacing="-0.5">Aí!</tspan>
  </text>
</svg>
